<?xml version="1.0" encoding="utf-8"?>
<svg viewBox="0 0 500 500" xmlns="http://www.w3.org/2000/svg">
  <style>
    path { fill: black; background-color: white;}
    @media (prefers-color-scheme: dark) {
      path { fill: white; background-color: black;}
    }
  </style>
  <path d="M 489.379 250 C 489.379 308.658 468.281 362.388 433.259 404.016 L 331.253 125.158 L 243.284 125.158 L 123.44 453.224 C 55.695 410.946 10.621 335.737 10.621 250 C 10.621 117.795 117.795 10.621 250 10.621 C 382.205 10.621 489.379 117.795 489.379 250 Z M 250 489.379 C 228.842 489.379 208.325 486.634 188.786 481.481 L 213.389 410.786 L 361.278 410.786 L 376.16 453.474 C 339.529 476.234 296.299 489.379 250 489.379 Z M 288.802 202.903 L 342.047 355.627 L 232.585 355.627 L 285.735 202.903 Z" width="100%" height="100%"/>
</svg>