<svg xmlns="http://www.w3.org/2000/svg" viewBox="0 0 399.6 238.47" xml:space="preserve">
  <path fill="#2C2C2C" d="M34.44 53.23H21.59l-1.83 8.1h-7.45l9.01-37.78h13.39l9.01 37.78h-7.45l-1.83-8.1zm-11.33-6.8h9.77L28.5 27.1h-.97l-4.42 19.33zM59.54 72.12h-6.8V34.55h6.8v3.89h.97c.72-1.48 1.76-2.62 3.13-3.43 1.37-.81 3.11-1.21 5.24-1.21 1.58 0 3.09.31 4.51.92 1.42.61 2.66 1.5 3.72 2.67s1.91 2.6 2.54 4.29c.63 1.69.94 3.62.94 5.78v.97c0 2.2-.31 4.14-.92 5.83-.61 1.69-1.44 3.12-2.48 4.29a10.212 10.212 0 0 1-3.7 2.65c-1.42.59-2.96.89-4.62.89-1.22 0-2.29-.13-3.18-.38-.9-.25-1.68-.59-2.35-1.03a7.08 7.08 0 0 1-1.67-1.48c-.45-.56-.84-1.14-1.16-1.75h-.97v14.67zm7.13-16.52c2.12 0 3.84-.66 5.15-1.97 1.31-1.31 1.97-3.1 1.97-5.37v-.65c0-2.27-.66-4.06-1.97-5.37-1.31-1.31-3.03-1.97-5.15-1.97-2.12 0-3.84.67-5.16 2.02-1.31 1.35-1.97 3.12-1.97 5.32v.65c0 2.2.66 3.97 1.97 5.32s3.03 2.02 5.16 2.02zM118.81 48.26c0 2.23-.38 4.2-1.13 5.91-.76 1.71-1.78 3.15-3.08 4.32-1.3 1.17-2.78 2.06-4.45 2.67-1.67.61-3.43.92-5.26.92-1.83 0-3.59-.31-5.26-.92-1.67-.61-3.16-1.5-4.45-2.67-1.3-1.17-2.32-2.61-3.08-4.32-.76-1.71-1.13-3.68-1.13-5.91v-.65c0-2.19.38-4.15 1.13-5.86.76-1.71 1.78-3.16 3.08-4.35s2.78-2.09 4.45-2.7c1.67-.61 3.43-.92 5.26-.92 1.84 0 3.59.31 5.26.92 1.67.61 3.16 1.51 4.45 2.7s2.32 2.64 3.08 4.35c.76 1.71 1.13 3.66 1.13 5.86v.65zm-13.93 7.34c.97 0 1.89-.16 2.75-.49.86-.32 1.62-.79 2.27-1.4.65-.61 1.16-1.36 1.54-2.24.38-.88.57-1.88.57-3V47.4c0-1.12-.19-2.11-.57-3-.38-.88-.89-1.63-1.54-2.24-.65-.61-1.4-1.08-2.27-1.4a7.84 7.84 0 0 0-2.75-.49c-.97 0-1.89.16-2.75.49-.86.32-1.62.79-2.27 1.4-.65.61-1.16 1.36-1.54 2.24-.38.88-.57 1.88-.57 3v1.08c0 1.12.19 2.11.57 3 .38.88.89 1.63 1.54 2.24.65.61 1.4 1.08 2.27 1.4.86.32 1.78.48 2.75.48zM130.85 54.85h9.39V30.02h-9.07v-6.48h15.87v31.31h8.74v6.48h-24.94v-6.48zM195.67 48.26c0 2.23-.38 4.2-1.13 5.91-.76 1.71-1.78 3.15-3.08 4.32-1.3 1.17-2.78 2.06-4.45 2.67-1.67.61-3.43.92-5.26.92-1.83 0-3.59-.31-5.26-.92-1.67-.61-3.16-1.5-4.45-2.67-1.3-1.17-2.32-2.61-3.08-4.32-.76-1.71-1.13-3.68-1.13-5.91v-.65c0-2.19.38-4.15 1.13-5.86.76-1.71 1.78-3.16 3.08-4.35s2.78-2.09 4.45-2.7c1.67-.61 3.43-.92 5.26-.92 1.84 0 3.59.31 5.26.92 1.67.61 3.16 1.51 4.45 2.7s2.32 2.64 3.08 4.35c.76 1.71 1.13 3.66 1.13 5.86v.65zm-13.92 7.34c.97 0 1.89-.16 2.75-.49.86-.32 1.62-.79 2.27-1.4.65-.61 1.16-1.36 1.54-2.24.38-.88.57-1.88.57-3V47.4c0-1.12-.19-2.11-.57-3-.38-.88-.89-1.63-1.54-2.24-.65-.61-1.4-1.08-2.27-1.4a7.84 7.84 0 0 0-2.75-.49c-.97 0-1.89.16-2.75.49-.86.32-1.62.79-2.27 1.4-.65.61-1.16 1.36-1.54 2.24-.38.88-.57 1.88-.57 3v1.08c0 1.12.19 2.11.57 3 .38.88.89 1.63 1.54 2.24.65.61 1.4 1.08 2.27 1.4.86.32 1.78.48 2.75.48zM226.98 57.44h-.97c-.29.61-.64 1.2-1.05 1.75-.41.56-.95 1.05-1.62 1.48-.67.43-1.46.77-2.38 1.03-.92.25-2.02.38-3.32.38-1.66 0-3.19-.3-4.62-.89-1.42-.59-2.66-1.48-3.72-2.65s-1.89-2.6-2.48-4.29c-.59-1.69-.89-3.63-.89-5.83v-.97c0-2.16.31-4.08.94-5.78.63-1.69 1.49-3.12 2.59-4.29a11.14 11.14 0 0 1 3.83-2.67c1.46-.61 3-.92 4.61-.92 2.16 0 3.87.4 5.13 1.21 1.26.81 2.25 1.95 2.97 3.43h.97v-3.89h6.8V67.9c0 1.22-.39 2.23-1.16 3.02-.77.79-1.77 1.19-2.99 1.19H211.6v-6.48h13.93c.97 0 1.46-.54 1.46-1.62v-6.57zm-7.12-1.84c2.12 0 3.84-.67 5.15-2.02 1.31-1.35 1.97-3.12 1.97-5.32v-.65c0-2.19-.66-3.97-1.97-5.32s-3.03-2.02-5.15-2.02c-2.12 0-3.84.66-5.15 1.97-1.31 1.31-1.97 3.1-1.97 5.37v.65c0 2.27.66 4.06 1.97 5.37 1.3 1.32 3.02 1.97 5.15 1.97zM252.3 50.15c.04.79.22 1.52.57 2.19.34.67.81 1.24 1.4 1.73s1.28.86 2.05 1.13c.77.27 1.59.4 2.46.4 1.69 0 2.99-.3 3.89-.89s1.55-1.3 1.94-2.13l5.83 3.24c-.32.68-.77 1.4-1.35 2.13-.58.74-1.32 1.41-2.24 2.02-.92.61-2.03 1.12-3.35 1.51-1.31.4-2.85.59-4.62.59-2.02 0-3.85-.32-5.51-.97-1.66-.65-3.09-1.58-4.29-2.81-1.21-1.22-2.14-2.72-2.81-4.48-.67-1.76-1-3.76-1-5.99v-.32c0-2.05.35-3.92 1.05-5.61.7-1.69 1.66-3.13 2.89-4.32 1.22-1.19 2.65-2.11 4.29-2.78 1.64-.67 3.39-1 5.26-1 2.3 0 4.28.4 5.94 1.21 1.65.81 3.02 1.84 4.1 3.08 1.08 1.24 1.87 2.61 2.38 4.1.5 1.49.76 2.94.76 4.35v3.62H252.3zm6.42-10.2c-1.73 0-3.13.44-4.21 1.32-1.08.88-1.78 1.9-2.11 3.05h12.63c-.22-1.26-.89-2.3-2.02-3.13-1.13-.83-2.56-1.24-4.29-1.24zM283.98 34.55h7.93V23.54h6.8v11.01h9.66v6.48h-9.66v12.2c0 1.08.49 1.62 1.46 1.62h7.23v6.48h-11.33c-1.22 0-2.22-.4-3-1.19-.77-.79-1.16-1.8-1.16-3.02V41.03h-7.93v-6.48zM323.66 54.85h9.07V41.03h-8.42v-6.48h15.22v20.3h7.77v6.48h-23.64v-6.48zm17.54-28.23c0 .72-.13 1.4-.41 2.02-.27.63-.64 1.17-1.11 1.62-.47.45-1.02.81-1.65 1.08s-1.29.4-1.97.4c-.72 0-1.39-.13-2-.4-.61-.27-1.15-.63-1.62-1.08-.47-.45-.84-.99-1.11-1.62-.27-.63-.4-1.3-.4-2.02s.13-1.39.4-2.02c.27-.63.64-1.17 1.11-1.62.47-.45 1.01-.81 1.62-1.08.61-.27 1.28-.4 2-.4.68 0 1.34.14 1.97.4.63.27 1.18.63 1.65 1.08.47.45.84.99 1.11 1.62.27.62.41 1.3.41 2.02zM370.56 44.37h1.29l7.12-9.82h7.45v.32l-8.64 12.25v.97l9.5 12.9v.32h-7.77l-7.67-10.47h-1.29v10.47h-6.8V23.54h6.8v20.83z"/>
  <g>
    <path fill="#2C2C2C" d="M22.51 131.5v14.25h-7.13v-37.78h14.79c1.94 0 3.63.32 5.07.94 1.44.63 2.64 1.46 3.59 2.48.95 1.03 1.67 2.2 2.16 3.51.49 1.31.73 2.65.73 4.02v1.3c0 1.4-.24 2.78-.73 4.13s-1.21 2.56-2.16 3.62c-.95 1.06-2.15 1.92-3.59 2.56-1.44.65-3.13.97-5.07.97h-7.66zm0-6.8h6.96c1.58 0 2.83-.43 3.75-1.3.92-.86 1.38-1.98 1.38-3.35v-.65c0-1.37-.46-2.48-1.38-3.35-.92-.86-2.17-1.3-3.75-1.3h-6.96v9.95zM52.85 118.98h11.33v3.89h.97c.5-1.48 1.36-2.62 2.56-3.43 1.21-.81 2.65-1.21 4.35-1.21 2.66 0 4.8.84 6.42 2.51s2.43 4.22 2.43 7.64v1.19l-7.02.65v-.76c0-1.48-.38-2.65-1.13-3.54-.76-.88-1.89-1.32-3.4-1.32s-2.7.52-3.56 1.57c-.86 1.04-1.3 2.54-1.3 4.48v8.64h6.15v6.48H52.2v-6.48h5.51v-13.82h-4.86v-6.49zM118.81 132.69c0 2.23-.38 4.2-1.13 5.91-.76 1.71-1.78 3.15-3.08 4.32-1.3 1.17-2.78 2.06-4.45 2.67-1.67.61-3.43.92-5.26.92-1.83 0-3.59-.31-5.26-.92-1.67-.61-3.16-1.5-4.45-2.67-1.3-1.17-2.32-2.61-3.08-4.32-.76-1.71-1.13-3.68-1.13-5.91v-.65c0-2.19.38-4.15 1.13-5.86.76-1.71 1.78-3.16 3.08-4.35s2.78-2.09 4.45-2.7c1.67-.61 3.43-.92 5.26-.92 1.84 0 3.59.31 5.26.92 1.67.61 3.16 1.51 4.45 2.7s2.32 2.64 3.08 4.35c.76 1.71 1.13 3.66 1.13 5.86v.65zm-13.93 7.34c.97 0 1.89-.16 2.75-.49.86-.32 1.62-.79 2.27-1.4.65-.61 1.16-1.36 1.54-2.24.38-.88.57-1.88.57-3v-1.08c0-1.12-.19-2.11-.57-3-.38-.88-.89-1.63-1.54-2.24-.65-.61-1.4-1.08-2.27-1.4a7.84 7.84 0 0 0-2.75-.49c-.97 0-1.89.16-2.75.49-.86.32-1.62.79-2.27 1.4-.65.61-1.16 1.36-1.54 2.24-.38.88-.57 1.88-.57 3v1.08c0 1.12.19 2.11.57 3 .38.88.89 1.63 1.54 2.24.65.61 1.4 1.08 2.27 1.4.86.33 1.78.49 2.75.49zM133.6 118.98h17.17v32.06c0 1.87-.5 3.26-1.51 4.16-1.01.9-2.32 1.35-3.94 1.35h-12.69v-6.48h9.72c1.08 0 1.62-.59 1.62-1.78v-22.83H133.6v-6.48zm18.78-7.94c0 .72-.13 1.4-.4 2.02-.27.63-.64 1.17-1.11 1.62-.47.45-1.02.81-1.65 1.08-.63.27-1.29.4-1.97.4-.72 0-1.39-.13-2-.4-.61-.27-1.15-.63-1.62-1.08-.47-.45-.84-.99-1.11-1.62-.27-.63-.41-1.3-.41-2.02s.14-1.39.41-2.02c.27-.63.64-1.17 1.11-1.62.47-.45 1.01-.81 1.62-1.08.61-.27 1.28-.4 2-.4.68 0 1.34.14 1.97.4.63.27 1.18.63 1.65 1.08.47.45.84.99 1.11 1.62.27.63.4 1.3.4 2.02zM175.43 134.58c.04.79.22 1.52.57 2.19.34.67.81 1.24 1.4 1.73s1.28.86 2.05 1.13c.77.27 1.59.4 2.46.4 1.69 0 2.99-.3 3.89-.89.9-.59 1.55-1.3 1.94-2.13l5.83 3.24c-.32.68-.77 1.4-1.35 2.13-.58.74-1.32 1.41-2.24 2.02-.92.61-2.03 1.12-3.35 1.51-1.31.4-2.85.59-4.62.59-2.02 0-3.85-.32-5.51-.97-1.66-.65-3.09-1.58-4.29-2.81-1.21-1.22-2.14-2.72-2.81-4.48-.67-1.76-1-3.76-1-5.99v-.32c0-2.05.35-3.92 1.05-5.61.7-1.69 1.66-3.13 2.89-4.32 1.22-1.19 2.65-2.11 4.29-2.78 1.64-.67 3.39-1 5.26-1 2.3 0 4.28.4 5.94 1.21 1.65.81 3.02 1.84 4.1 3.08 1.08 1.24 1.87 2.61 2.38 4.1.5 1.49.76 2.94.76 4.35v3.62h-19.64zm6.43-10.21c-1.73 0-3.13.44-4.21 1.32-1.08.88-1.78 1.9-2.1 3.05h12.63c-.22-1.26-.89-2.3-2.02-3.13-1.15-.82-2.58-1.24-4.3-1.24zM216.83 128.8h1.3l7.12-9.82h7.45v.32l-8.64 12.25v.97l9.5 12.9v.32h-7.77l-7.66-10.47h-1.3v10.47h-6.8v-37.78h6.8v20.84zM245.55 118.98h7.93v-11.01h6.8v11.01h9.66v6.48h-9.66v12.2c0 1.08.49 1.62 1.46 1.62h7.23v6.48h-11.33c-1.22 0-2.22-.4-3-1.19-.77-.79-1.16-1.8-1.16-3.02v-16.09h-7.93v-6.48z"/>
  </g>
  <path fill="#2C2C2C" d="M0 0h399.6v9.23H0zM0 84.43h399.6v9.23H0zM42.42 168.94v51.62l29.85-51.71H399.6v9.23h-322l-34.87 60.39h-9.54v-60.39H0v-9.23z"/>
</svg>