<?xml version="1.0" encoding="utf-8"?>
<svg width="100%" height="100%" viewBox="-10.696 10.116 358.696 221.884" version="1.1" style="fill-rule:evenodd;clip-rule:evenodd;stroke-miterlimit:10;" xmlns="http://www.w3.org/2000/svg">
  <g transform="matrix(1,0,0,1,-303.926,-134.796)">
    <g transform="matrix(1,0,0,1,648.225,201.583)">
      <path d="M0,102.086C3.726,90.013 4.596,77.166 1.925,64.816C-2.254,45.497 -15.713,22.109 -54.555,12.016C-128.089,-7.091 -153.621,-62.967 -222.406,-45.172C-222.406,-45.172 -259.32,-38.464 -276.791,22.616C-294.261,83.697 -362.715,84.736 -339.146,137.92C-335.293,146.613 -324.92,156.096 -310.027,165.053L-31.078,164.115C-11.801,140.938 -5.801,120.888 0,102.086" style="fill-rule: nonzero; fill: rgb(237, 237, 237);"/>
    </g>
    <g transform="matrix(1,0,0,1,582.404,328.219)">
      <path d="M0,-68.231L-10.466,-68.231L-10.466,-79.68C-10.466,-85.428 -14.47,-90.23 -19.837,-91.477L-19.837,-105.687L-23.689,-105.687L-23.689,-91.747C-29.867,-91.19 -34.711,-86.004 -34.711,-79.68L-34.711,-67.895L-45.122,-67.895L-45.122,-54.762L-45.823,-54.762L-45.823,-30.355L-64.747,-30.491L-64.747,-59.662L-86.43,-59.662L-86.43,-38.284L-101.644,-38.284L-101.644,-17.516L-120.03,-17.516L-120.03,37.456L-58.944,37.456L-58.944,37.448L-45.823,37.448L-45.823,37.456L30.774,37.456L30.774,-31.866L-0.027,-31.866L0,-68.231Z" style="fill-rule: nonzero; fill: rgb(200, 200, 200);"/>
    </g>
    <g transform="matrix(1,0,0,1,366.444,323.732)">
      <path d="M0,-33.531L0,-60.858L10.245,-60.858L10.245,-75.474L14.096,-75.474L14.096,-60.858L23.534,-60.858L23.534,-33.531L34.124,-33.531L34.124,-17.159L51,-17.159L51,-72.93L86.232,-72.93L86.232,41.943L-13.032,41.943L-13.032,-33.531L0,-33.531Z" style="fill-rule: nonzero; fill: rgb(214, 214, 214);"/>
    </g>
    <g transform="matrix(-1,0.000784646,0.000784646,1,398.33,354.57)">
      <path d="M-160.591,10.953L-0.009,10.953C6.073,10.953 11.004,6.022 11.005,-0.06L-171.603,-0.059C-171.604,6.024 -166.673,10.954 -160.591,10.953" style="fill-rule: nonzero; fill: rgb(90, 95, 103);"/>
    </g>
    <g transform="matrix(1,0,0,1,558.927,358.298)">
      <path d="M0,3.307L-160.582,3.432C-165.33,3.436 -169.366,0.429 -170.916,-3.781L-171.601,-3.78C-171.596,2.302 -166.661,7.229 -160.579,7.224L0.003,7.098C6.085,7.094 11.012,2.16 11.007,-3.922L10.322,-3.922C8.779,0.29 4.747,3.303 0,3.307" style="fill-rule: nonzero; fill: rgb(145, 154, 166);"/>
    </g>
    <g transform="matrix(-1,0.000771196,0.000771196,1,468.253,354.463)">
      <path d="M-20.751,3.679L-0.004,3.679C2.032,3.679 3.684,2.028 3.684,-0.008L-24.437,-0.007C-24.437,2.029 -22.787,3.679 -20.751,3.679" style="fill-rule: nonzero; fill: rgb(59, 62, 71);"/>
    </g>
    <g transform="matrix(1,0,0,1,560.536,245.37)">
      <path d="M0,109.013L-163.812,109.142L-163.89,10.266C-163.894,4.594 -159.299,-0.008 -153.627,-0.012L-10.356,-0.124C-4.684,-0.129 -0.082,4.466 -0.077,10.138L0,109.013Z" style="fill-rule: nonzero; fill: rgb(143, 150, 154);"/>
    </g>
    <g transform="matrix(-1,0.000783645,0.000783645,1,405.14,253.958)" style="">
      <rect x="-146.786" y="-0.058" width="146.75" height="92.062" style="fill: rgb(78, 81, 91);"/>
    </g>
    <g transform="matrix(-1,0.000783645,0.000783645,1,405.238,337.22)" style="">
      <rect x="-146.754" y="-0.059" width="146.75" height="8.801" style="fill: rgb(75, 75, 84);"/>
    </g>
    <g transform="matrix(-1,0.000783645,0.000783645,1,405.174,253.959)" style="">
      <rect x="-146.752" y="-0.059" width="146.751" height="4.369" style="fill: rgb(78, 78, 92);"/>
    </g>
    <g opacity="0.16" style="">
      <g transform="matrix(1,0,0,1,454.118,345.93)">
        <path d="M0,-92.068L-48.903,-43.088L-48.87,0.033L-48.764,0.033L43.226,-92.101L0,-92.068Z" style="fill-rule: nonzero; fill: rgb(139, 142, 155);"/>
      </g>
    </g>
    <g opacity="0.16" style="">
      <g transform="matrix(1,-0.000969037,-0.000969037,-1,424.241,346.007)">
        <path d="M-0.045,0.055L21.626,0.055L113.705,92.1L92.035,92.1L-0.045,0.055Z" style="fill-rule: nonzero; fill: rgb(139, 142, 155);"/>
      </g>
    </g>
    <g opacity="0.16" style="">
      <g transform="matrix(0.706554,-0.70766,-0.70766,-0.706554,549.869,332.411)">
        <path d="M-20.209,1.205L4.202,1.205L27.315,24.317L-44.637,25.641L-20.209,1.205Z" style="fill-rule: nonzero; fill: rgb(139, 142, 155);"/>
      </g>
    </g>
    <g transform="matrix(-1,0,0,1,957.182,104.422)" style="">
      <rect x="396.646" y="188.743" width="163.89" height="18.092" style="fill: rgb(245, 175, 0);"/>
    </g>
    <g style="">
      <clipPath id="_clip1">
        <rect x="396.646" y="293.165" width="163.89" height="18.092" clip-rule="nonzero"/>
      </clipPath>
      <g clip-path="url(#_clip1)">
        <g transform="matrix(-1,0,0,1,415.129,289.838)">
          <path d="M-1.964,27.767L12.138,27.767L-0,0L-14.102,0L-1.964,27.767Z" style="fill:white;fill-rule:nonzero;"/>
        </g>
        <g transform="matrix(-1,0,0,1,445.2,289.838)">
          <path d="M-1.964,27.767L12.138,27.767L-0.001,0L-14.102,0L-1.964,27.767Z" style="fill:white;fill-rule:nonzero;"/>
        </g>
        <g transform="matrix(-1,0,0,1,475.272,289.838)">
          <path d="M-1.964,27.767L12.138,27.767L-0,0L-14.102,0L-1.964,27.767Z" style="fill:white;fill-rule:nonzero;"/>
        </g>
        <g transform="matrix(-1,0,0,1,505.345,289.838)">
          <path d="M-1.964,27.767L12.138,27.767L-0,0L-14.102,0L-1.964,27.767Z" style="fill:white;fill-rule:nonzero;"/>
        </g>
        <g transform="matrix(-1,0,0,1,535.416,289.838)">
          <path d="M-1.964,27.767L12.138,27.767L-0.001,0L-14.102,0L-1.964,27.767Z" style="fill:white;fill-rule:nonzero;"/>
        </g>
      </g>
    </g>
    <g transform="matrix(1,0,0,1,383.487,267.039)" style="">
      <path d="M0,-5.111L-3.204,-4.988L-5.079,-5.583C-5.94,-5.856 -6.88,-5.529 -7.385,-4.779L-7.621,-4.428L1.745,0.745L3.557,-3.139L0,-5.111Z" style="fill:rgb(20,16,61);fill-rule:nonzero;"/>
    </g>
    <g transform="matrix(1,0,0,1,385.235,261.893)" style="">
      <path d="M0,5.972L-9.439,0.758L-9.109,0.16C-9.044,0.043 -8.896,0 -8.778,0.065L0.448,5.161L0,5.972" style="fill:rgb(20,16,61);fill-rule:nonzero;"/>
    </g>
    <g transform="matrix(0.500271,-0.865869,-0.865869,-0.500271,390.541,261.256)">
      <path d="M-4.038,1.705L0.907,1.705L3.497,6.059L-4.11,5.772L-4.038,1.705Z" style="fill:rgb(235,129,117);fill-rule:nonzero;"/>
    </g>
    <g transform="matrix(1,0,0,1,406.43,257.792)">
      <path d="M0,-18.524C0,-18.524 -13.348,-22.354 -14.633,-18.75C-15.918,-15.147 -23.705,0.798 -23.705,0.798L-17.893,3.83L-9.176,-11.311L2.554,-12.331L0,-18.524Z" style="fill:rgb(20,16,61);fill-rule:nonzero;"/>
    </g>
    <g transform="matrix(1,0,0,1,395.579,271.083)">
      <path d="M0,-4.296L-2.613,-2.631L-4.541,-2.242C-5.428,-2.064 -6.09,-1.321 -6.168,-0.421L-6.205,0L4.495,-0.017L4.195,-4.292L0,-4.296Z" style="fill:rgb(20,16,61);fill-rule:nonzero;"/>
    </g>
    <g transform="matrix(1,0,0,1,400.116,270.227)">
      <path d="M0,0.91L-10.784,0.927L-10.785,0.244C-10.785,0.109 -10.676,0 -10.541,0L-0.001,-0.017L0,0.91" style="fill:rgb(20,16,61);fill-rule:nonzero;"/>
    </g>
    <g transform="matrix(0.0476181,-0.998866,-0.998866,-0.0476181,401.762,261.222)">
      <path d="M-5.657,1.72L1.525,1.72L1.801,6L-5.853,5.911L-5.657,1.72Z" style="fill:rgb(235,129,117);fill-rule:nonzero;"/>
    </g>
    <g transform="matrix(1,0,0,1,408.232,265.05)">
      <path d="M0,-26.395L-12.58,-25.822C-12.58,-25.822 -14.39,-25.723 -14.269,-21.487C-14.146,-17.252 -14.158,-0.209 -14.158,-0.209L-8.116,0L-6.96,-17.852L5.633,-18.007C8.287,-18.041 10.757,-19.562 11.807,-22C12.209,-22.933 12.401,-23.978 12.153,-25.077L0,-26.395Z" style="fill:rgb(35,28,97);fill-rule:nonzero;"/>
    </g>
    <g transform="matrix(-0.00208188,-0.999998,-0.999998,0.00208188,394.518,233.565)">
      <path d="M-2.556,-1.77C-3.751,-1.771 -3.93,-0.96 -3.929,0.234C-3.929,1.427 -3.751,2.553 -2.556,2.553C-1.362,2.553 -0.395,1.584 -0.395,0.391C-0.394,-0.802 -1.362,-1.771 -2.556,-1.77" style="fill:rgb(225,173,157);fill-rule:nonzero;"/>
    </g>
    <g transform="matrix(1,0,0,1,397.812,234.969)">
      <path d="M0,2.369L-2.499,2.374C-3.151,2.375 -3.687,1.843 -3.688,1.19C-3.689,0.537 -3.156,0.002 -2.503,0.001L-0.005,-0.004C0.647,-0.006 1.183,0.528 1.184,1.18C1.185,1.832 0.652,2.368 0,2.369" style="fill:rgb(225,173,157);fill-rule:nonzero;"/>
    </g>
    <g transform="matrix(1,0,0,1,397.716,217.94)">
      <path d="M0,19.652L-0.833,15.563L9.438,14.444L11.492,2.444C11.699,1.353 13.278,0 14.369,0.208L14.055,0.118C15.146,0.325 16.147,1.592 15.94,2.683L13.941,17.039C13.794,17.813 13.208,18.43 12.441,18.617L0,19.652Z" style="fill:rgb(200,198,242);fill-rule:nonzero;"/>
    </g>
    <g transform="matrix(1,0,0,1,418.233,239.457)">
      <path d="M0,-21.045C0.212,-21.028 0.42,-20.98 0.618,-20.903L0.721,-20.862C2.484,-20.173 3.678,-18.282 3.758,-16.509L2.152,0.517C-8.49,0.424 -10.001,-0.801 -10.001,-0.801L-9.155,-18.218C-9.026,-19.861 -8.272,-21.406 -6.401,-21.562L0,-21.045Z" style="fill:rgb(216,215,253);fill-rule:nonzero;"/>
    </g>
    <g transform="matrix(-0.0684845,-0.997652,-0.997652,0.0684845,404.46,235.037)">
      <path d="M-2.555,-1.883C-3.748,-1.883 -3.927,-1.074 -3.927,0.119C-3.927,1.314 -3.748,2.44 -2.555,2.439C-1.361,2.44 -0.393,1.472 -0.392,0.279C-0.393,-0.916 -1.361,-1.884 -2.555,-1.883" style="fill:rgb(235,129,117);fill-rule:nonzero;"/>
    </g>
    <g transform="matrix(1,0,0,1,408.11,236.377)">
      <path d="M0,2.196L-2.493,2.367C-3.144,2.412 -3.713,1.916 -3.758,1.265C-3.803,0.613 -3.307,0.044 -2.655,0L-0.163,-0.171C0.488,-0.216 1.058,0.28 1.103,0.931C1.146,1.582 0.65,2.152 0,2.196" style="fill:rgb(235,129,117);fill-rule:nonzero;"/>
    </g>
    <g transform="matrix(1,0,0,1,408.03,220.259)">
      <path d="M0,18.573L-1.103,14.549L10.09,12.749L9.453,2.341C9.588,1.239 10.796,0 11.897,0.135C13,0.268 14.084,1.466 13.95,2.568L14.756,15.039C14.661,15.822 14.117,16.476 13.365,16.714L0,18.573Z" style="fill:rgb(216,215,253);fill-rule:nonzero;"/>
    </g>
    <g transform="matrix(1,0,0,1,388.664,238.863)">
      <path d="M0,-13.858L12.213,-12.707C12.614,-12.669 12.935,-12.355 12.981,-11.955L14.264,-0.95C14.326,-0.41 13.875,0.051 13.334,0L0.919,-1.17C0.512,-1.209 0.188,-1.531 0.148,-1.938L-0.931,-12.924C-0.983,-13.459 -0.534,-13.909 0,-13.858" style="fill:rgb(9,18,24);fill-rule:nonzero;"/>
    </g>
    <g transform="matrix(1,0,0,1,387.961,238.798)">
      <path d="M0,-13.859L12.213,-12.708C12.614,-12.67 12.935,-12.356 12.981,-11.956L14.263,-0.95C14.326,-0.41 13.875,0.05 13.334,-0.001L0.918,-1.171C0.511,-1.21 0.188,-1.532 0.148,-1.939L-0.931,-12.925C-0.983,-13.46 -0.535,-13.909 0,-13.859" style="fill:rgb(27,41,52);fill-rule:nonzero;"/>
    </g>
    <g transform="matrix(1,0,0,1,402.589,239.721)">
      <path d="M0,-1.732L8.344,-0.945C8.599,-0.921 8.785,-0.695 8.762,-0.441C8.737,-0.187 8.512,0 8.258,-0.024L-0.591,-0.826L0,-1.732Z" style="fill:rgb(9,18,24);fill-rule:nonzero;"/>
    </g>
    <g transform="matrix(0.0939086,-0.995581,-0.995581,-0.0939086,393.88,230.176)">
      <path d="M-1.331,-1.211C-2.068,-1.211 -2.667,-0.612 -2.667,0.125C-2.667,0.864 -2.069,1.462 -1.331,1.462C-0.592,1.463 0.006,0.864 0.006,0.125C0.006,-0.612 -0.592,-1.211 -1.331,-1.211" style="fill:white;fill-rule:nonzero;"/>
    </g>
    <g transform="matrix(0.0351221,0.999383,0.999383,-0.0351221,417.223,234.675)">
      <path d="M-9.673,0.212L-1.843,0.212L-0.229,-10.293L-2.778,-0.996L-9.673,0.212Z" style="fill:rgb(200,198,242);fill-rule:nonzero;"/>
    </g>
    <g transform="matrix(1,0,0,1,411.557,218.165)">
      <path d="M0,-0.791L0.697,1.082C0.949,1.758 1.574,2.224 2.293,2.272C3.659,2.364 4.642,0.982 4.105,-0.277L2.881,-3.155L0,-0.791Z" style="fill:rgb(235,129,117);fill-rule:nonzero;"/>
    </g>
    <g transform="matrix(0.983021,-0.183491,-0.183491,-0.983021,412.811,219.227)">
      <path d="M-0.589,0.298C-0.589,0.298 2.911,0.306 2.966,3.355C3.022,6.403 -0.589,4.691 -0.589,4.691L-0.829,1.682L-0.589,0.298Z" style="fill:rgb(225,108,95);fill-rule:nonzero;"/>
    </g>
    <g transform="matrix(-0.42352,0.905887,0.905887,0.42352,415.9,208.87)">
      <path d="M4.887,-7.681C7.867,-7.681 10.283,-5.265 10.282,-2.285C10.283,0.694 7.867,3.11 4.887,3.11C1.908,3.11 -0.508,0.694 -0.509,-2.285C-0.508,-5.265 1.907,-7.68 4.887,-7.681" style="fill:rgb(235,129,117);fill-rule:nonzero;"/>
    </g>
    <g>
      <clipPath id="_clip2">
        <path d="M406.872,210.044C405.61,212.743 406.776,215.955 409.475,217.216C412.174,218.478 415.385,217.314 416.648,214.615C417.91,211.915 416.744,208.703 414.045,207.441C413.306,207.096 412.529,206.933 411.763,206.932C409.734,206.932 407.789,208.083 406.872,210.044Z" clip-rule="nonzero"/>
      </clipPath>
      <g clip-path="url(#_clip2)">
        <g transform="matrix(1,0,0,1,413.761,209.154)">
          <path d="M0,4.239C0,4.239 -0.85,8.561 2.327,8.655C5.504,8.75 3.774,0.548 3.774,0.548L-1.253,-4.511L-8.946,-2.618L-8.183,2.356C-8.183,2.356 -6.959,3.006 -0.346,1.916L0,4.239Z" style="fill:rgb(35,28,97);fill-rule:nonzero;"/>
        </g>
        <g transform="matrix(1,0,0,1,410.621,213.707)">
          <path d="M0,-3.696L2.526,0L4.705,-2.407L0,-3.696Z" style="fill:rgb(35,28,97);fill-rule:nonzero;"/>
        </g>
      </g>
    </g>
    <g transform="matrix(-0.42346,0.905915,0.905915,0.42346,415.463,212.056)">
      <path d="M1.382,-2.171C2.224,-2.17 2.907,-1.488 2.907,-0.646C2.907,0.197 2.225,0.88 1.382,0.88C0.54,0.88 -0.143,0.197 -0.143,-0.645C-0.143,-1.488 0.54,-2.171 1.382,-2.171" style="fill:rgb(235,129,117);fill-rule:nonzero;"/>
    </g>
    <g transform="matrix(0.560894,0.827888,0.827888,-0.560894,404.317,205.213)">
      <path d="M5.991,-2.24C5.991,-2.24 1.817,-0.82 1.183,2.939C0.662,6.038 2.863,9.037 5.991,9.356C7.459,9.506 9.297,9.181 11.457,7.802L5.991,-2.24Z" style="fill:rgb(245,209,0);fill-rule:nonzero;"/>
    </g>
    <g transform="matrix(-0.0124331,-0.999923,-0.999923,0.0124331,409.742,210.7)">
      <path d="M-0.616,3.341L2.039,3.341C2.713,3.342 3.265,2.808 3.288,2.135C3.31,1.471 2.81,0.904 2.149,0.846L-0.504,0.613" style="fill:none;fill-rule:nonzero;stroke:rgb(241,171,0);stroke-width:0.28px;"/>
    </g>
    <g transform="matrix(-0.995428,0.0955148,0.0955148,0.995428,404.907,212.098)">
      <path d="M-12.409,-0.594L0.028,-0.594" style="fill:none;fill-rule:nonzero;stroke:white;stroke-width:1.12px;stroke-linecap:round;stroke-linejoin:round;"/>
    </g>
    <g transform="matrix(0.718277,0.695758,0.695758,-0.718277,531.404,354.508)">
      <path d="M-1.573,-0.506L2.29,-0.506L1.203,-3.93L-2.592,-3.908L-1.573,-0.506Z" style="fill:rgb(235,129,117);fill-rule:nonzero;"/>
    </g>
    <g transform="matrix(1,0,0,1,510.387,351.855)">
      <path d="M0,-18.163L1.854,-9.956C2.227,-8.312 2.94,-6.733 3.967,-5.286L16.175,5.682L21.003,1.748L10.579,-9.289L6.761,-23.845L0,-18.163Z" style="fill:rgb(20,16,61);fill-rule:nonzero;"/>
    </g>
    <g transform="matrix(1,0,0,1,529.441,362.999)">
      <path d="M0,-4.91L-1,-1.72L-2.143,-0.131C-2.668,0.6 -2.648,1.589 -2.096,2.299L-1.837,2.631L5.953,-4.627L2.839,-7.541L0,-4.91Z" style="fill:rgb(20,16,61);fill-rule:nonzero;"/>
    </g>
    <g transform="matrix(-0.731687,0.681641,0.681641,0.731687,530.394,367.033)">
      <rect x="-9.604" y="-3.779" width="10.731" height="0.92" style="fill:rgb(20,16,61);"/>
    </g>
    <g transform="matrix(-0.286817,0.957985,0.957985,0.286817,501.495,362.64)">
      <path d="M-4.206,0.55L-0.577,0.55L-0.47,-3.149L-4.04,-3.128L-4.206,0.55Z" style="fill:rgb(235,129,117);fill-rule:nonzero;"/>
    </g>
    <g transform="matrix(1,0,0,1,508.021,359.964)">
      <path d="M0,-35.427L-10.014,-1.577L-3.695,0L1.941,-16.969L8.866,-28.072C9.218,-28.567 9.563,-29.086 9.855,-29.622C10.41,-30.638 10.659,-31.746 10.647,-32.857L10.623,-35.059L0,-35.427Z" style="fill:rgb(35,28,97);fill-rule:nonzero;"/>
    </g>
    <g transform="matrix(1,0,0,1,498.819,365.872)">
      <path d="M0,-4.92L-3.16,-3.753L-5.131,-3.686C-6.036,-3.654 -6.813,-3.029 -7.038,-2.151L-7.144,-1.741L3.439,0L3.846,-4.277L0,-4.92Z" style="fill:rgb(20,16,61);fill-rule:nonzero;"/>
    </g>
    <g transform="matrix(-0.986732,-0.162358,-0.162358,0.986732,492.061,362.441)">
      <rect x="-10.662" y="0.871" width="10.81" height="0.928" style="fill:rgb(20,16,61);"/>
    </g>
    <g transform="matrix(-0.539625,0.841906,0.841906,0.539625,495.776,296.917)">
      <path d="M-4.758,-5.105L2.742,-5.105L2.868,-2.72L-5.018,-2.8L-4.758,-5.105Z" style="fill-rule: nonzero; fill: rgb(38, 43, 62);"/>
    </g>
    <g transform="matrix(1,0,0,1,488.789,294.704)">
      <path d="M0,-15.013C0,-15.013 1.87,-7.186 11.347,-4.105C11.62,-4.016 11.828,-3.786 11.866,-3.501C11.987,-2.595 11.988,-0.636 9.893,-0.055C9.694,0 9.474,-0.04 9.3,-0.15C7.851,-1.057 0.722,-5.225 -6.198,-4.023L0,-15.013Z" style="fill-rule: nonzero; fill: rgb(28, 32, 44);"/>
    </g>
    <g transform="matrix(1,0,0,1,488.789,290.681)">
      <path d="M0,-10.99C0,-10.99 -1.737,-3.182 -6.198,0C-6.198,0 -5.569,-6.844 0,-10.99" style="fill-rule: nonzero; fill: rgb(46, 50, 64);"/>
    </g>
    <g transform="matrix(-0.250747,0.968053,0.968053,0.250747,492.778,294.302)">
      <path d="M2.73,-3.527C4.195,-3.45 5.594,-1.866 5.519,-0.402C5.443,1.063 4.195,2.188 2.73,2.112C1.266,2.037 -0.135,0.451 -0.058,-1.013C0.017,-2.478 1.265,-3.603 2.73,-3.527" style="fill:rgb(235,129,117);fill-rule:nonzero;"/>
    </g>
    <g transform="matrix(1,0,0,1,496.283,300.07)">
      <path d="M0,0.208L-2.807,-2.724L-4.639,-0.469L0,2.932" style="fill:rgb(235,129,117);fill-rule:nonzero;"/>
    </g>
    <g transform="matrix(1,0,0,1,495.837,309.589)">
      <path d="M0,-12.022L-2.966,-7.613L5.144,-0.19C5.639,-0.048 6.155,0 6.668,-0.043L17.375,-1.43C19.062,-1.51 20.365,-2.943 20.285,-4.63C20.205,-6.318 20.528,-8.759 18.842,-8.679L6.401,-6.125L0,-12.022Z" style="fill:rgb(200,198,242);fill-rule:nonzero;"/>
    </g>
    <g transform="matrix(1,0,0,1,519.851,318.023)">
      <path d="M0,-10.338C0.286,-12.677 -0.775,-14.992 -2.76,-16.264C-3.651,-16.835 -4.535,-17.221 -5.172,-17.112C-7.308,-16.752 -9.503,-15.784 -10.443,-12.901C-12.041,-7.999 -12.498,6.492 -12.498,6.492L-1.02,6.883L0,-10.338Z" style="fill:rgb(216,215,253);fill-rule:nonzero;"/>
    </g>
    <g transform="matrix(1,0,0,1,515.614,320.733)">
      <path d="M0,-12.683L3.451,0L4.148,-10.76L0,-12.683Z" style="fill:rgb(200,198,242);fill-rule:nonzero;"/>
    </g>
    <g transform="matrix(0.77376,-0.633479,-0.633479,-0.77376,530.66,331.451)">
      <path d="M-1.786,-0.638C-0.322,-0.562 1.079,1.024 1.003,2.488C0.927,3.953 -0.322,5.078 -1.786,5.001C-3.251,4.926 -4.651,3.341 -4.575,1.877C-4.5,0.412 -3.251,-0.713 -1.786,-0.638" style="fill:rgb(235,129,117);fill-rule:nonzero;"/>
    </g>
    <g transform="matrix(1,0,0,1,524.474,328.148)">
      <path d="M0,-4.106L2.093,1.058L4.903,0.319L3.165,-5.164" style="fill:rgb(235,129,117);fill-rule:nonzero;"/>
    </g>
    <g transform="matrix(1,0,0,1,524.607,301.77)">
      <path d="M0,26.256L5.747,24.992L1.85,11.661C1.705,11.167 1.472,10.703 1.162,10.293L-5.994,1.385C-6.961,0 -8.591,0.247 -9.977,1.214C-11.361,2.181 -11.7,4.087 -10.734,5.473L-3.843,13.759L0,26.256Z" style="fill:rgb(216,215,253);fill-rule:nonzero;"/>
    </g>
    <g transform="matrix(1,0,0,1,511.991,301.569)">
      <path d="M0,-2.403L0.218,-0.393C0.297,0.331 0.793,0.944 1.486,1.17C2.802,1.601 4.109,0.492 3.897,-0.878L3.414,-4.004L0,-2.403Z" style="fill:rgb(235,129,117);fill-rule:nonzero;"/>
    </g>
    <g transform="matrix(0.997941,0.0641437,0.0641437,-0.997941,511.989,300.825)">
      <path d="M0.205,-0.119C0.205,-0.119 3.735,0.225 3.792,3.308C3.847,6.391 0.205,4.325 0.205,4.325L-0.038,1.282L0.205,-0.119Z" style="fill:rgb(225,108,95);fill-rule:nonzero;"/>
    </g>
    <g transform="matrix(-0.633527,0.77372,0.77372,0.633527,518.797,293.194)">
      <path d="M4.223,-8.913C7.237,-8.913 9.68,-6.47 9.679,-3.456C9.68,-0.443 7.237,2.001 4.223,2C1.209,2.001 -1.234,-0.441 -1.234,-3.456C-1.235,-6.47 1.209,-8.913 4.223,-8.913" style="fill:rgb(235,129,117);fill-rule:nonzero;"/>
    </g>
    <g>
      <clipPath id="_clip3">
        <path d="M509.224,290.815C507.316,293.147 507.659,296.584 509.99,298.494C512.321,300.402 515.759,300.061 517.669,297.729C519.578,295.397 519.236,291.959 516.904,290.05C515.89,289.219 514.666,288.814 513.45,288.814C511.871,288.814 510.304,289.497 509.224,290.815Z" clip-rule="nonzero"/>
      </clipPath>
      <g clip-path="url(#_clip3)">
        <g transform="matrix(1,0,0,1,515.144,292.656)">
          <path d="M0,3.156C0,3.156 -1.909,7.181 1.182,8.065C4.271,8.949 4.62,0.478 4.62,0.478L0.951,-5.733L-7.062,-5.793L-7.553,-0.727C-7.553,-0.727 -6.515,0.215 0.239,0.793L0,3.156Z" style="fill:rgb(35,28,97);fill-rule:nonzero;"/>
        </g>
        <g transform="matrix(1,0,0,1,512.908,295.968)">
          <path d="M0,-4.253L1.557,0L4.292,-1.817L0,-4.253Z" style="fill:rgb(35,28,97);fill-rule:nonzero;"/>
        </g>
      </g>
    </g>
    <g transform="matrix(-0.633467,0.77377,0.77377,0.633467,517.268,295.29)">
      <path d="M1.195,-2.521C2.046,-2.521 2.738,-1.829 2.737,-0.978C2.738,-0.126 2.047,0.565 1.195,0.565C0.343,0.566 -0.347,-0.126 -0.348,-0.978C-0.348,-1.83 0.343,-2.521 1.195,-2.521" style="fill:rgb(235,129,117);fill-rule:nonzero;"/>
    </g>
    <g transform="matrix(0.378158,0.925741,0.925741,-0.378158,508.271,284.829)">
      <path d="M6.818,-3.273C6.818,-3.273 2.596,-1.838 1.956,1.965C1.429,5.1 3.656,8.132 6.818,8.455C8.304,8.608 10.163,8.278 12.347,6.884L6.818,-3.273Z" style="fill:rgb(245,209,0);fill-rule:nonzero;"/>
    </g>
    <g transform="matrix(0.193968,-0.981008,-0.981008,-0.193968,511.288,292.608)">
      <path d="M-0.384,2.854L2.302,2.854C2.983,2.855 3.541,2.315 3.565,1.633C3.587,0.962 3.082,0.39 2.412,0.33L-0.271,0.095" style="fill:none;fill-rule:nonzero;stroke:rgb(241,171,0);stroke-width:0.28px;"/>
    </g>
    <g transform="matrix(-0.993735,-0.111766,-0.111766,0.993735,506.929,291.556)">
      <path d="M-12.54,0.703L0.039,0.703" style="fill:none;fill-rule:nonzero;stroke:white;stroke-width:1.13px;stroke-linecap:round;stroke-linejoin:round;"/>
    </g>
    <g transform="matrix(-0.712154,0.702023,0.702023,0.712154,589.015,341.466)">
      <path d="M-15.549,-6.376L2.614,-6.376" style="fill: none; fill-rule: nonzero; stroke-width: 2.65px; stroke: rgb(61, 71, 91);"/>
    </g>
    <g transform="matrix(-0.712154,0.702023,0.702023,0.712154,589.015,327.84)">
      <path d="M-15.549,-6.376L2.614,-6.376" style="fill: none; fill-rule: nonzero; stroke-width: 2.65px; stroke: rgb(61, 71, 91);"/>
    </g>
    <g transform="matrix(-0.712154,0.702023,0.702023,0.712154,589.015,314.214)">
      <path d="M-15.549,-6.376L2.614,-6.376" style="fill: none; fill-rule: nonzero; stroke-width: 2.65px; stroke: rgb(61, 71, 91);"/>
    </g>
    <g transform="matrix(-0.712154,0.702023,0.702023,0.712154,589.015,300.588)">
      <path d="M-15.549,-6.376L2.614,-6.376" style="fill: none; fill-rule: nonzero; stroke-width: 2.65px; stroke: rgb(61, 71, 91);"/>
    </g>
    <g transform="matrix(-0.712154,0.702023,0.702023,0.712154,589.015,286.962)">
      <path d="M-15.549,-6.376L2.614,-6.376" style="fill: none; fill-rule: nonzero; stroke-width: 2.65px; stroke: rgb(61, 71, 91);"/>
    </g>
    <g transform="matrix(-0.712154,0.702023,0.702023,0.712154,589.015,273.336)">
      <path d="M-15.549,-6.376L2.614,-6.376" style="fill: none; fill-rule: nonzero; stroke-width: 2.65px; stroke: rgb(61, 71, 91);"/>
    </g>
    <g transform="matrix(-0.712154,0.702023,0.702023,0.712154,589.015,259.71)">
      <path d="M-15.549,-6.376L2.614,-6.376" style="fill: none; fill-rule: nonzero; stroke-width: 2.65px; stroke: rgb(61, 71, 91);"/>
    </g>
    <g transform="matrix(-0.712154,0.702023,0.702023,0.712154,589.015,246.084)">
      <path d="M-15.549,-6.376L2.614,-6.376" style="fill: none; fill-rule: nonzero; stroke-width: 2.65px; stroke: rgb(61, 71, 91);"/>
    </g>
    <g transform="matrix(-0.712154,0.702023,0.702023,0.712154,589.015,232.458)">
      <path d="M-15.549,-6.376L2.614,-6.376" style="fill: none; fill-rule: nonzero; stroke-width: 2.65px; stroke: rgb(61, 71, 91);"/>
    </g>
    <g transform="matrix(-0.712154,0.702023,0.702023,0.712154,589.015,218.832)">
      <path d="M-15.549,-6.376L2.614,-6.376" style="fill: none; fill-rule: nonzero; stroke-width: 2.65px; stroke: rgb(61, 71, 91);"/>
    </g>
    <g transform="matrix(-0.712154,0.702023,0.702023,0.712154,589.015,205.206)">
      <path d="M-15.549,-6.376L2.614,-6.376" style="fill: none; fill-rule: nonzero; stroke-width: 2.65px; stroke: rgb(61, 71, 91);"/>
    </g>
    <g transform="matrix(1,0,0,1,582.678,325.135)">
      <path d="M0,0L12.935,0" style="fill: none; fill-rule: nonzero; stroke-width: 2.65px; stroke: rgb(61, 71, 91);"/>
    </g>
    <g transform="matrix(1,0,0,1,582.678,311.509)" style="visibility: hidden;">
      <path d="M0,0L12.935,0" style="fill: none; fill-rule: nonzero; stroke-width: 2.65px; stroke: rgb(245, 175, 0);"/>
    </g>
    <g transform="matrix(1,0,0,1,582.678,297.883)" style="visibility: hidden;">
      <path d="M0,0L12.935,0" style="fill: none; fill-rule: nonzero; stroke-width: 2.65px; stroke: rgb(245, 175, 0);"/>
    </g>
    <g transform="matrix(1,0,0,1,582.678,284.257)">
      <path d="M0,0L12.935,0" style="fill: none; fill-rule: nonzero; stroke-width: 2.65px; stroke: rgb(61, 71, 91);"/>
    </g>
    <g transform="matrix(1,0,0,1,582.678,270.631)">
      <path d="M0,0L12.935,0" style="fill: none; fill-rule: nonzero; stroke-width: 2.65px; stroke: rgb(61, 71, 91);"/>
    </g>
    <g transform="matrix(1,0,0,1,582.678,257.005)">
      <path d="M0,0L12.935,0" style="fill: none; fill-rule: nonzero; stroke-width: 2.65px; stroke: rgb(61, 71, 91);"/>
    </g>
    <g transform="matrix(1,0,0,1,582.678,243.379)">
      <path d="M0,0L12.935,0" style="fill: none; fill-rule: nonzero; stroke-width: 2.65px; stroke: rgb(61, 71, 91);"/>
    </g>
    <g transform="matrix(1,0,0,1,582.678,229.753)">
      <path d="M0,0L12.935,0" style="fill: none; fill-rule: nonzero; stroke-width: 2.65px; stroke: rgb(61, 71, 91);"/>
    </g>
    <g transform="matrix(1,0,0,1,582.678,216.127)">
      <path d="M0,0L12.935,0" style="fill: none; fill-rule: nonzero; stroke-width: 2.65px; stroke: rgb(61, 71, 91);"/>
    </g>
    <g transform="matrix(1,0,0,1,582.678,202.501)">
      <path d="M0,0L12.935,0" style="fill: none; fill-rule: nonzero; stroke-width: 2.65px; stroke: rgb(61, 71, 91);"/>
    </g>
    <g transform="matrix(0,-1,-1,0,657.939,267.192)">
      <path d="M-75.262,75.262L75.262,75.262" style="fill: none; fill-rule: nonzero; stroke-width: 2.65px; stroke: rgb(61, 71, 91);"/>
    </g>
    <g transform="matrix(0,-1,-1,0,670.874,267.192)">
      <path d="M-75.262,75.262L75.262,75.262" style="fill: none; fill-rule: nonzero; stroke-width: 2.65px; stroke: rgb(61, 71, 91);"/>
    </g>
    <g transform="matrix(-1,0,0,1,1177.78,204.282)">
      <rect x="576.01" y="134.478" width="25.758" height="26.762" style="fill: rgb(43, 44, 50);"/>
    </g>
    <g transform="matrix(1,0,0,1,595.647,166.443)">
      <path d="M0,25.487L-13.463,25.487C-15.839,25.487 -17.764,23.561 -17.764,21.186L-17.764,4.3C-17.764,1.925 -15.839,0 -13.463,0L0,0C2.375,0 4.301,1.925 4.301,4.3L4.301,21.186C4.301,23.561 2.375,25.487 0,25.487" style="fill-rule: nonzero; stroke: rgb(61, 71, 91); fill: rgb(61, 71, 91);"/>
    </g>
    <g transform="matrix(1,0,0,1,588.56,172.588)">
      <path d="M0,11.924L-8.665,11.924L-8.665,0L0,0C1.8,0 3.259,1.459 3.259,3.258L3.259,8.665C3.259,10.465 1.8,11.924 0,11.924" style="fill-rule: nonzero; fill: rgb(44, 51, 67);"/>
    </g>
    <g transform="matrix(0.325499,0.945542,0.945542,-0.325499,515.043,198.565)">
      <path d="M-10.721,-15.029L21.068,-15.029" style="fill: none; fill-rule: nonzero; stroke-width: 2.16px; stroke: rgb(54, 59, 70);"/>
    </g>
    <g transform="matrix(-0.595043,0.803694,0.803694,0.595043,485.006,219.592)">
      <path d="M-27.043,-13.626L6.866,-13.626" style="fill: none; fill-rule: nonzero; stroke-width: 2.16px; stroke: rgb(54, 59, 70);"/>
    </g>
    <g transform="matrix(1,0,0,1,496.172,259.543)">
      <path d="M0,-56.421L20.85,-29.157C23.144,-26.157 22.571,-21.865 19.571,-19.571L-7.693,1.278C-10.693,3.572 -14.984,2.999 -17.278,0L-38.128,-27.264C-40.422,-30.264 -39.85,-34.556 -36.85,-36.85L-9.585,-57.699C-6.586,-59.993 -2.294,-59.421 0,-56.421" style="fill-rule: nonzero; fill: rgb(245, 204, 0);"/>
    </g>
    <g transform="matrix(1,0,0,1,494.602,254.412)">
      <path d="M0,-46.162L17.059,-23.854C18.936,-21.4 18.467,-17.889 16.013,-16.012L-6.295,1.046C-8.749,2.923 -12.261,2.456 -14.138,0.001L-31.196,-22.307C-33.073,-24.761 -32.604,-28.272 -30.15,-30.149L-7.843,-47.208C-5.389,-49.085 -1.877,-48.617 0,-46.162Z" style="fill: none; fill-rule: nonzero; stroke-width: 1.11px; stroke: rgb(25, 15, 36);"/>
    </g>
    <g transform="matrix(1,0,0,1,491.944,244.834)">
      <path d="M0,-25.942L-2.411,-8.928L-7.576,-9.617C-6.812,-15.341 -6.178,-20.904 -5.41,-26.663L0,-25.942ZM-2.643,-3.328C-3.182,0.721 -9.325,-0.098 -8.785,-4.147C-8.24,-8.231 -2.098,-7.412 -2.643,-3.328" style="fill-rule: nonzero; fill: rgb(19, 15, 22);"/>
    </g>
    <g transform="matrix(0,-1,-1,0,494.392,178.554)">
      <path d="M-8.65,-8.65C-13.427,-8.65 -17.3,-4.777 -17.3,0C-17.3,4.778 -13.427,8.65 -8.65,8.65C-3.873,8.65 0,4.778 0,0C0,-4.777 -3.873,-8.65 -8.65,-8.65" style="fill-rule: nonzero; fill: rgb(52, 60, 67);"/>
    </g>
    <g transform="matrix(0,-1,-1,0,494.392,181.088)">
      <path d="M-6.116,-6.116C-9.494,-6.116 -12.232,-3.378 -12.232,0C-12.232,3.378 -9.494,6.116 -6.116,6.116C-2.738,6.116 0,3.378 0,0C0,-3.378 -2.738,-6.116 -6.116,-6.116" style="fill-rule: nonzero; fill: rgb(82, 91, 102);"/>
    </g>
    <g transform="matrix(0,1,1,0,537.479,157.275)">
      <path d="M-9.168,-9.168L9.168,-9.168" style="fill: none; fill-rule: nonzero; stroke-width: 2.65px; stroke: rgb(61, 71, 91);"/>
    </g>
    <g transform="matrix(0,1,1,0,521.037,157.275)">
      <path d="M-9.168,-9.168L9.168,-9.168" style="fill: none; fill-rule: nonzero; stroke-width: 2.65px; stroke: rgb(61, 71, 91);"/>
    </g>
    <g transform="matrix(0,1,1,0,553.867,157.275)">
      <path d="M-9.168,-9.168L9.168,-9.168" style="fill: none; fill-rule: nonzero; stroke-width: 2.65px; stroke: rgb(61, 71, 91);"/>
    </g>
    <g transform="matrix(0,1,1,0,572.076,157.275)">
      <path d="M-9.168,-9.168L9.168,-9.168" style="fill: none; fill-rule: nonzero; stroke-width: 2.65px; stroke: rgb(61, 71, 91);"/>
    </g>
    <g transform="matrix(0,1,1,0,589.062,157.275)">
      <path d="M-9.168,-9.168L9.168,-9.168" style="fill-rule: nonzero; stroke-width: 2.65px; stroke: rgb(61, 71, 91); fill: rgb(61, 71, 91);"/>
    </g>
    <g transform="matrix(0,1,1,0,606.672,157.275)">
      <path d="M-9.168,-9.168L9.168,-9.168" style="fill-rule: nonzero; stroke-width: 2.65px; stroke: rgb(61, 71, 91); fill: rgb(61, 71, 91);"/>
    </g>
    <g transform="matrix(0,1,1,0,623.971,157.275)">
      <path d="M-9.168,-9.168L9.168,-9.168" style="fill-rule: nonzero; stroke-width: 2.65px; stroke: rgb(61, 71, 91); fill: rgb(61, 71, 91);"/>
    </g>
    <g transform="matrix(0.686259,-0.727357,-0.727357,-0.686259,520.394,169.857)">
      <path d="M-3.954,9.168L21.253,9.168" style="fill: none; fill-rule: nonzero; stroke-width: 2.65px; stroke: rgb(61, 71, 91);"/>
    </g>
    <g transform="matrix(0.686238,-0.727377,-0.727377,-0.686238,537.693,169.857)">
      <path d="M-3.955,9.168L21.253,9.167" style="fill: none; fill-rule: nonzero; stroke-width: 2.65px; stroke: rgb(61, 71, 91);"/>
    </g>
    <g transform="matrix(0.686259,-0.727357,-0.727357,-0.686259,554.991,169.857)">
      <path d="M-3.954,9.168L21.253,9.168" style="fill: none; fill-rule: nonzero; stroke-width: 2.65px; stroke: rgb(61, 71, 91);"/>
    </g>
    <g transform="matrix(0.686238,-0.727377,-0.727377,-0.686238,572.29,169.857)">
      <path d="M-3.955,9.168L21.253,9.167" style="fill-rule: nonzero; stroke-width: 2.65px; stroke: rgb(61, 71, 91); fill: rgb(61, 71, 91);"/>
    </g>
    <g transform="matrix(0.686259,-0.727357,-0.727357,-0.686259,589.588,169.857)">
      <path d="M-3.954,9.168L21.253,9.168" style="fill-rule: nonzero; stroke-width: 2.65px; stroke: rgb(61, 71, 91); fill: rgb(61, 71, 91);"/>
    </g>
    <g transform="matrix(0.686259,-0.727357,-0.727357,-0.686259,606.887,169.857)">
      <path d="M-3.954,9.168L21.253,9.168" style="fill-rule: nonzero; stroke-width: 2.65px; stroke: rgb(61, 71, 91); fill: rgb(61, 71, 91);"/>
    </g>
    <g transform="matrix(1,0,0,1,494.392,148.107)">
      <path d="M0,18.335L141.038,18.335L122.048,0L14.59,0L0,18.335Z" style="fill: none; fill-rule: nonzero; stroke-width: 2.65px; stroke-linecap: round; stroke-linejoin: round; stroke: rgb(61, 71, 91);"/>
    </g>
    <g transform="matrix(0,1,1,0,504.773,176.823)">
      <path d="M-10.381,-10.381L10.381,-10.381" style="fill: none; fill-rule: nonzero; stroke-width: 2.65px; stroke-linecap: round; stroke-linejoin: round; stroke: rgb(54, 59, 66);"/>
    </g>
    <g transform="matrix(0.36083,-0.932632,-0.932632,-0.36083,439.453,364.951)">
      <path d="M-5.304,18.992L22.055,18.992C23.358,18.991 23.979,17.386 23.016,16.508L2.781,-1.906L-5.304,18.992Z" style="fill-rule: nonzero; fill: rgb(245, 175, 0);"/>
    </g>
    <g>
      <clipPath id="_clip4">
        <path d="M429.7,337.529L419.827,363.045L442.235,363.045L432.363,337.529C432.127,336.921 431.579,336.617 431.031,336.617C430.483,336.617 429.935,336.921 429.7,337.529Z" clip-rule="nonzero"/>
      </clipPath>
      <g clip-path="url(#_clip4)">
        <g transform="matrix(-1,0,0,1,861.758,191.447)">
          <rect x="422.115" y="151.569" width="17.528" height="5.415" style="fill:rgb(250,250,250);"/>
        </g>
        <g transform="matrix(-1,0,0,1,862.138,211.916)">
          <rect x="421.156" y="141.334" width="19.826" height="5.416" style="fill:rgb(250,250,250);"/>
        </g>
      </g>
    </g>
    <g transform="matrix(-1,0,0,1,862.174,228.24)">
      <rect x="418.022" y="134.805" width="26.13" height="2.15" style="fill: rgb(232, 159, 0);"/>
    </g>
    <g transform="matrix(0.360862,-0.932619,-0.932619,-0.360862,582.81,365.03)">
      <path d="M-5.304,18.992L22.055,18.992C23.359,18.991 23.98,17.387 23.016,16.509L2.782,-1.906L-5.304,18.992Z" style="fill-rule: nonzero; fill: rgb(245, 175, 0);"/>
    </g>
    <g>
      <clipPath id="_clip5">
        <path d="M573.057,337.609L563.184,363.124L585.592,363.124L575.718,337.609C575.483,337 574.935,336.696 574.388,336.696C573.84,336.696 573.292,337 573.057,337.609Z" clip-rule="nonzero"/>
      </clipPath>
      <g clip-path="url(#_clip5)">
        <g transform="matrix(-1,0,0,1,1148.47,191.605)">
          <rect x="565.471" y="151.49" width="17.529" height="5.415" style="fill:rgb(250,250,250);"/>
        </g>
        <g transform="matrix(-1,0,0,1,1148.85,212.073)">
          <rect x="564.514" y="141.256" width="19.825" height="5.415" style="fill:rgb(250,250,250);"/>
        </g>
      </g>
    </g>
    <g transform="matrix(-1,0,0,1,1148.89,228.398)">
      <rect x="561.38" y="134.726" width="26.129" height="2.15" style="fill: rgb(232, 159, 0);"/>
    </g>
    <g transform="matrix(0,-1,-1,0,366.204,299.896)">
      <path d="M-20.501,-20.503C-31.824,-20.503 -41.004,-11.324 -41.004,-0.001C-41.004,11.322 -31.824,20.501 -20.501,20.501C-9.179,20.501 0.001,11.322 0.001,-0.001C0.001,-11.324 -9.179,-20.503 -20.501,-20.503" style="fill-rule: nonzero; fill: rgb(142, 163, 155);"/>
    </g>
    <g transform="matrix(0,1,1,0,392.258,339.142)">
      <path d="M-26.053,-26.053L26.053,-26.053" style="fill: none; fill-rule: nonzero; stroke-width: 1.14px; stroke-linecap: round; stroke-linejoin: round; stroke: rgba(54, 49, 44, 0.92);"/>
    </g>
    <g transform="matrix(0.66555,0.746354,0.746354,-0.66555,362.902,312.671)">
      <path d="M-2.003,-4.47L9.976,-4.47" style="fill: none; fill-rule: nonzero; stroke-width: 1.14px; stroke-linecap: round; stroke-linejoin: round; stroke: rgba(54, 49, 44, 0.89);"/>
    </g>
    <g transform="matrix(-0.693838,0.720131,0.720131,0.693838,369.93,331.363)">
      <path d="M-8.632,-3.67C-7.826,-3.686 1.56,-3.67 1.56,-3.67" style="fill: none; fill-rule: nonzero; stroke-width: 1.14px; stroke-linecap: round; stroke-linejoin: round; stroke: rgba(54, 49, 44, 0.9);"/>
    </g>
    <g transform="matrix(1,0,0,1,304.494,365.697)">
      <path d="M0,0L343.901,0" style="fill: none; fill-rule: nonzero; stroke-width: 1.14px; stroke-linecap: round; stroke-linejoin: round; stroke: rgba(55, 58, 66, 0.89);"/>
    </g>
  </g>
</svg>