<?xml version="1.0" encoding="utf-8"?>
<svg viewBox="0 0 500 500" width="75" height="75" xmlns="http://www.w3.org/2000/svg">
<g filter="opacity(0.23)">
  <circle style="fill: rgb(255, 200, 38);" cx="43.427" cy="39.089" r="32"/>
  <circle style="fill: rgb(255, 200, 38);" cx="125.089" cy="39.477" r="32"/>
  <circle style="fill: rgb(255, 200, 38);" cx="206.404" cy="39.466" r="32"/>
  <circle style="fill: rgb(255, 200, 38);" cx="287.495" cy="39.662" r="32"/>
  <circle style="fill: rgb(255, 200, 38);" cx="368.81" cy="39.651" r="32"/>
  <circle style="fill: rgb(255, 200, 38);" cx="449.788" cy="39.577" r="32"/>
  <circle style="fill: rgb(255, 200, 38);" cx="43.649" cy="122.554" r="32"/>
  <circle style="fill: rgb(255, 200, 38);" cx="125.311" cy="122.942" r="32"/>
  <circle style="fill: rgb(255, 200, 38);" cx="206.626" cy="122.931" r="32"/>
  <circle style="fill: rgb(255, 200, 38);" cx="287.717" cy="123.127" r="32"/>
  <circle style="fill: rgb(255, 200, 38);" cx="369.032" cy="123.116" r="32"/>
  <circle style="fill: rgb(255, 200, 38);" cx="450.01" cy="123.042" r="32"/>
  <circle style="fill: rgb(255, 200, 38);" cx="43.8" cy="205.957" r="32"/>
  <circle style="fill: rgb(255, 200, 38);" cx="125.462" cy="206.345" r="32"/>
  <circle style="fill: rgb(255, 200, 38);" cx="206.777" cy="206.334" r="32"/>
  <circle style="fill: rgb(255, 200, 38);" cx="287.868" cy="206.53" r="32"/>
  <circle style="fill: rgb(255, 200, 38);" cx="369.183" cy="206.519" r="32"/>
  <circle style="fill: rgb(255, 200, 38);" cx="450.161" cy="206.445" r="32"/>
  <circle style="fill: rgb(255, 200, 38);" cx="44.356" cy="291.244" r="32"/>
  <circle style="fill: rgb(255, 200, 38);" cx="126.018" cy="291.632" r="32"/>
  <circle style="fill: rgb(255, 200, 38);" cx="207.333" cy="291.621" r="32"/>
  <circle style="fill: rgb(255, 200, 38);" cx="288.424" cy="291.817" r="32"/>
  <circle style="fill: rgb(255, 200, 38);" cx="369.739" cy="291.806" r="32"/>
  <circle style="fill: rgb(255, 200, 38);" cx="450.717" cy="291.732" r="32"/>
  <circle style="fill: rgb(255, 200, 38);" cx="44.578" cy="374.709" r="32"/>
  <circle style="fill: rgb(255, 200, 38);" cx="126.24" cy="375.097" r="32"/>
  <circle style="fill: rgb(255, 200, 38);" cx="207.555" cy="375.086" r="32"/>
  <circle style="fill: rgb(255, 200, 38);" cx="288.646" cy="375.282" r="32"/>
  <circle style="fill: rgb(255, 200, 38);" cx="369.961" cy="375.271" r="32"/>
  <circle style="fill: rgb(255, 200, 38);" cx="450.939" cy="375.197" r="32"/>
  <circle style="fill: rgb(255, 200, 38);" cx="44.729" cy="458.112" r="32"/>
  <circle style="fill: rgb(255, 200, 38);" cx="126.391" cy="458.5" r="32"/>
  <circle style="fill: rgb(255, 200, 38);" cx="207.706" cy="458.489" r="32"/>
  <circle style="fill: rgb(255, 200, 38);" cx="288.797" cy="458.685" r="32"/>
  <circle style="fill: rgb(255, 200, 38);" cx="370.112" cy="458.674" r="32"/>
  <circle style="fill: rgb(255, 200, 38);" cx="451.09" cy="458.6" r="32"/>
</g>
</svg>