<?xml version="1.0" encoding="utf-8"?>
<svg viewBox="0 0 500 500" width="75" height="75" xmlns="http://www.w3.org/2000/svg">
  <g>
    <rect x="11.389" y="8.99" width="64.719" height="64.719" style="fill: rgba(235, 201, 68, 0.265);"/>
    <rect x="92.476" y="9.105" width="64.719" height="64.719" style="fill: rgba(235, 201, 68, 0.265);"/>
    <rect x="173.768" y="9.403" width="64.719" height="64.719" style="fill: rgba(235, 201, 68, 0.265);"/>
    <rect x="254.855" y="9.518" width="64.719" height="64.719" style="fill: rgba(235, 201, 68, 0.265);"/>
    <rect x="336.522" y="9.32" width="64.719" height="64.719" style="fill: rgba(235, 201, 68, 0.265);"/>
    <rect x="417.609" y="9.435" width="64.719" height="64.719" style="fill: rgba(235, 201, 68, 0.265);"/>
    <rect x="11.795" y="92.108" width="64.719" height="64.719" style="fill: rgba(235, 201, 68, 0.265);"/>
    <rect x="92.882" y="92.223" width="64.719" height="64.719" style="fill: rgba(235, 201, 68, 0.265);"/>
    <rect x="174.174" y="92.521" width="64.719" height="64.719" style="fill: rgba(235, 201, 68, 0.265);"/>
    <rect x="255.261" y="92.636" width="64.719" height="64.719" style="fill: rgba(235, 201, 68, 0.265);"/>
    <rect x="336.928" y="92.438" width="64.719" height="64.719" style="fill: rgba(235, 201, 68, 0.265);"/>
    <rect x="418.015" y="92.553" width="64.719" height="64.719" style="fill: rgba(235, 201, 68, 0.265);"/>
    <rect x="12.539" y="174.757" width="64.719" height="64.719" style="fill: rgba(235, 201, 68, 0.265);"/>
    <rect x="93.626" y="174.872" width="64.719" height="64.719" style="fill: rgba(235, 201, 68, 0.265);"/>
    <rect x="174.918" y="175.17" width="64.719" height="64.719" style="fill: rgba(235, 201, 68, 0.265);"/>
    <rect x="256.005" y="175.285" width="64.719" height="64.719" style="fill: rgba(235, 201, 68, 0.265);"/>
    <rect x="337.672" y="175.087" width="64.719" height="64.719" style="fill: rgba(235, 201, 68, 0.265);"/>
    <rect x="418.759" y="175.202" width="64.719" height="64.719" style="fill: rgba(235, 201, 68, 0.265);"/>
    <rect x="12.945" y="258.875" width="64.719" height="64.719" style="fill: rgba(235, 201, 68, 0.265);"/>
    <rect x="94.032" y="258.99" width="64.719" height="64.719" style="fill: rgba(235, 201, 68, 0.265);"/>
    <rect x="175.324" y="259.288" width="64.719" height="64.719" style="fill: rgba(235, 201, 68, 0.265);"/>
    <rect x="256.411" y="259.403" width="64.719" height="64.719" style="fill: rgba(235, 201, 68, 0.265);"/>
    <rect x="338.078" y="259.205" width="64.719" height="64.719" style="fill: rgba(235, 201, 68, 0.265);"/>
    <rect x="419.165" y="259.32" width="64.719" height="64.719" style="fill: rgba(235, 201, 68, 0.265);"/>
    <rect x="12.254" y="341.619" width="64.719" height="64.719" style="fill: rgba(235, 201, 68, 0.265);"/>
    <rect x="93.341" y="341.734" width="64.719" height="64.719" style="fill: rgba(235, 201, 68, 0.265);"/>
    <rect x="174.633" y="342.032" width="64.719" height="64.719" style="fill: rgba(235, 201, 68, 0.265);"/>
    <rect x="255.72" y="342.147" width="64.719" height="64.719" style="fill: rgba(235, 201, 68, 0.265);"/>
    <rect x="337.387" y="341.949" width="64.719" height="64.719" style="fill: rgba(235, 201, 68, 0.265);"/>
    <rect x="418.474" y="342.064" width="64.719" height="64.719" style="fill: rgba(235, 201, 68, 0.265);"/>
    <rect x="12.66" y="424.737" width="64.719" height="64.719" style="fill: rgba(235, 201, 68, 0.265);"/>
    <rect x="93.747" y="424.852" width="64.719" height="64.719" style="fill: rgba(235, 201, 68, 0.265);"/>
    <rect x="175.039" y="425.15" width="64.719" height="64.719" style="fill: rgba(235, 201, 68, 0.265);"/>
    <rect x="256.126" y="425.265" width="64.719" height="64.719" style="fill: rgba(235, 201, 68, 0.265);"/>
    <rect x="337.793" y="425.067" width="64.719" height="64.719" style="fill: rgba(235, 201, 68, 0.265);"/>
    <rect x="418.88" y="425.182" width="64.719" height="64.719" style="fill: rgba(235, 201, 68, 0.265);"/>
  </g>
</svg>